<svg width="88" height="62" viewBox="0 0 88 62" fill="none" xmlns="http://www.w3.org/2000/svg">
<path d="M20.16 13.4H25.968V35.528L15.024 47H10.752L2.832 35.288V13.4H8.64V34.184L13.248 41.048L20.16 33.8V13.4ZM31.6133 13.4H37.4213V13.928L42.4613 21.464L48.9893 13.4H54.7973V47H48.9893V21.224L45.1973 25.688V28.712H41.0213V27.944L37.4213 22.568V47H31.6133V13.4ZM69.7065 13.4H82.5225V47H76.7145V32.648H67.1145V47H61.4025V21.992L69.7065 13.4ZM67.1145 23.672V27.224H76.7145V18.824H71.8185L67.1145 23.672Z" fill="white"/>
<path d="M21.16 14.4H26.968V36.528L16.024 48H11.752L3.832 36.288V14.4H9.64V35.184L14.248 42.048L21.16 34.8V14.4ZM32.6133 14.4H38.4213V14.928L43.4613 22.464L49.9893 14.4H55.7973V48H49.9893V22.224L46.1973 26.688V29.712H42.0213V28.944L38.4213 23.568V48H32.6133V14.4ZM70.7065 14.4H83.5225V48H77.7145V33.648H68.1145V48H62.4025V22.992L70.7065 14.4ZM68.1145 24.672V28.224H77.7145V19.824H72.8185L68.1145 24.672Z" fill="#F39C12"/>
</svg>
